<svg xmlns="http://www.w3.org/2000/svg" width="600" height="420" viewBox="0 0 600 420"><rect width="600" height="420" fill="#e0d5b9"/><text x="40" y="48" font-size="23" font-family="serif" fill="#4c5046">Pour les jours de pluie</text><g stroke="#777362" stroke-width="1.3"><path d="M40 100h520M40 114h520M40 128h520M40 142h520M40 156h520M40 230h520M40 244h520M40 258h520M40 272h520M40 286h520"/></g><g fill="#454c43" stroke="#454c43" stroke-width="3"><ellipse cx="105" cy="142" rx="10" ry="6"/><path d="M114 142V91"/><ellipse cx="170" cy="128" rx="10" ry="6"/><path d="M179 128V78"/><ellipse cx="235" cy="114" rx="10" ry="6"/><path d="M244 114V64"/><ellipse cx="300" cy="135" rx="10" ry="6"/><path d="M309 135V85"/><ellipse cx="390" cy="142" rx="10" ry="6"/><path d="M399 142V92"/><ellipse cx="470" cy="156" rx="10" ry="6"/><path d="M479 156V106"/></g><path d="m127 220 290 82m-270-74 260 79" fill="none" stroke="#87674e" stroke-width="2"/><text x="55" y="365" font-family="serif" font-size="23" font-style="italic" fill="#87674e">Reprendre ici. Moins vite, peut-être.</text></svg>
